<svg xmlns="http://www.w3.org/2000/svg" version="1.1" xmlns:xlink="http://www.w3.org/1999/xlink" viewBox="0 0 200 200" width="200" height="200"><metadata><rdf:RDF xmlns:rdf="http://www.w3.org/1999/02/22-rdf-syntax-ns#" xmlns:dc="http://purl.org/dc/elements/1.1/"><rdf:Description><dc:creator>RealFaviconGenerator</dc:creator><dc:source>https://realfavicongenerator.net</dc:source></rdf:Description></rdf:RDF></metadata><rect width="200" height="200" fill="url('#gradient')"></rect><defs><linearGradient id="gradient" gradientTransform="rotate(45 0.5 0.5)"><stop offset="0%" stop-color="#ffffff"></stop><stop offset="100%" stop-color="#ffffff"></stop></linearGradient></defs><g><g fill="243d67" transform="matrix(4.894117647058824,0,0,4.894117647058824,35.15098538223434,134.77707909976735)" stroke="#0e5278" stroke-width="0.2"><path d="M9.98 0L9.15-2.66L4.45-2.66L3.63 0L-0.03 0L5.19-14.22L8.41-14.22L13.66 0L9.98 0ZM6.80-10.23L5.27-5.30L8.33-5.30L6.80-10.23ZM26.53-7.47L26.53-6.82Q26.53-4.74 25.76-3.13Q24.99-1.53 23.57-0.67Q22.15 0.20 20.33 0.20Q18.52 0.20 17.11-0.64Q15.70-1.47 14.92-3.03Q14.13-4.58 14.09-6.59L14.09-6.59L14.09-7.39Q14.09-9.48 14.86-11.08Q15.63-12.68 17.06-13.54Q18.49-14.41 20.31-14.41L20.31-14.41Q22.12-14.41 23.54-13.55Q24.95-12.70 25.74-11.11Q26.52-9.52 26.53-7.47L26.53-7.47ZM23.05-6.76L23.05-7.41Q23.05-9.53 22.34-10.63Q21.63-11.73 20.31-11.73L20.31-11.73Q17.73-11.73 17.59-7.86L17.59-7.86L17.58-6.82Q17.58-4.73 18.27-3.60Q18.96-2.48 20.33-2.48L20.33-2.48Q21.63-2.48 22.33-3.58Q23.04-4.69 23.05-6.76L23.05-6.76Z"></path></g></g></svg>